<?xml version="1.0" encoding="utf-8"?>
<!-- Generator: Adobe Illustrator 23.0.4, SVG Export Plug-In . SVG Version: 6.00 Build 0)  -->
<svg xmlns:xlink="http://www.w3.org/1999/xlink" version="1.1" id="Layer_1" xmlns="http://www.w3.org/2000/svg" x="0px"
     y="0px"
     viewBox="0 0 1386 428" style="enable-background:new 0 0 1386 428;" xml:space="preserve">
<style type="text/css">
	.st0{fill:#2C3E50;}
	.st1{enable-background:new    ;}
</style>
    <g>
	<g>
		<g>
			<g>
				<path class="st0" d="M265.2,85.5l-5.3,10.1c-6.3,1.2-12.3,3.4-17.9,6.7l-29-12.6c-1.6-0.7-3.4-0.1-4.2,1.5
					c-0.4,0.9-0.4,1.9,0,2.7l12.6,29c-4.1,7.2-6.6,15.1-7.4,23.4l-9.4,4.8c-1.5,0.9-2,3-1.1,4.5c0.3,0.4,0.6,0.8,1.1,1.1l10.1,5.3
					c1.2,6.3,3.4,12.3,6.6,17.9l-12.6,29c-0.5,1.2-0.2,2.6,0.7,3.5s2.3,1.2,3.5,0.7l29-12.6c7.2,4.1,15.1,6.7,23.4,7.4l4.9,9.3
					c0.8,1.5,2.6,2.1,4.2,1.4c0.6-0.3,1.1-0.8,1.4-1.4l5.1-9.6l6.9,6.9c5.7,5.7,15,5.7,20.7,0l0.9-1c2.7,6.4,8.9,10.6,15.8,10.7
					l116,116.2c5,5.1,13.1,5.3,18.3,0.3c5.1-5,5.3-13.1,0.3-18.3c-0.1-0.1-0.2-0.2-0.3-0.3l-115.9-116c-0.1-4.5-2-8.9-5.2-12.1l0,0
					c-1.6-1.6-3.4-2.8-5.4-3.7l0.9-1c5.7-5.6,5.8-14.8,0.2-20.5c-0.1-0.1-0.1-0.1-0.2-0.2l-7.2-7.3c0.3-1.7,0.5-3.3,0.7-4.9l9.3-4.9
					c1-0.6,1.7-1.6,1.7-2.8s-0.6-2.2-1.7-2.8l-10.1-5.3c-1.2-6.3-3.4-12.3-6.6-17.8l12.6-29c0.2-0.4,0.3-0.8,0.3-1.2
					c0-1.7-1.5-3.1-3.2-3.1c-0.3,0-0.7,0.1-1,0.2l-29,12.6c-7.1-4.1-15.1-6.7-23.4-7.4l-4.9-9.3c-0.8-1.5-2.6-2.1-4.2-1.4
					c-0.6,0.3-1.1,0.8-1.4,1.4L265.2,85.5z M277.8,110.6c1.7-2.7,2.1-6,1.2-9c19.3,3.2,35,17.3,40.3,36.1c-6.2-1.1-12,3-13.2,9.1
					c-0.1,0.7-0.2,1.4-0.2,2.1l0,0c0,4,2.1,7.7,5.5,9.7c2.5,1.5,5.5,2,8.4,1.3c-0.2,0.3-0.4,0.6-0.5,0.9
					c-2.3,9.5-7.4,18.2-14.5,24.9c-5.5,6.1-12.5,10.6-20.4,13v-0.6c0-2.1-0.6-4.1-1.7-5.9c-3.5-5.2-10.6-6.6-15.8-3
					c-3.9,2.7-5.8,7.5-4.7,12.1c-19.3-3.2-35.1-17.3-40.3-36.1c6.2,1.1,12.1-3,13.2-9.2c0.1-0.7,0.2-1.3,0.2-2l0,0
					c0-4-2.1-7.7-5.5-9.8c-2.7-1.6-6-2-9.1-1.1c1.7-10.4,6.7-20,14.1-27.4c6.1-6.1,13.7-10.6,22-12.9c-0.5,2.7,0,5.5,1.4,7.8
					c3.2,5.4,10.3,7.1,15.7,3.9C275.5,113.5,276.8,112.1,277.8,110.6L277.8,110.6z M217.9,98.7l18,7.7c-1.9,1.5-3.8,3.1-5.5,4.8
					c-1.7,1.7-3.3,3.6-4.8,5.5L217.9,98.7z M212.8,153.9l8.6-4.5c2.5-1.3,5.6-0.3,6.9,2.2c0.4,0.7,0.6,1.5,0.6,2.3l0,0
					c0,1.8-0.9,3.5-2.5,4.4s-3.5,0.9-5.1,0L212.8,153.9z M217.8,204.2l7.7-18c1.5,1.9,3.1,3.8,4.8,5.5s3.6,3.3,5.5,4.8L217.8,204.2z
					 M268.6,200.6c-0.9-1.6-0.9-3.5,0-5s2.5-2.4,4.2-2.5c2.8,0,5.1,2.3,5.1,5.1c0,0.8-0.2,1.7-0.6,2.4l-4.5,8.4L268.6,200.6z
					 M425,296.4l-9.3,9.3l-5.9-5.9l9.3-9.3L425,296.4z M435.3,306.8l-9.3,9.4l-5.9-6l9.3-9.3L435.3,306.8z M454.8,326.3
					c2.6,2.6,2.6,6.8,0,9.4l0,0c-2.6,2.5-6.7,2.5-9.3,0l-15-15l9.3-9.4L454.8,326.3z M414.6,286.1l-9.4,9.3L333,223l0,0
					c0.7-0.3,1.3-0.6,2-1c0.3-0.2,0.6-0.3,0.9-0.5c0.9-0.6,1.8-1.3,2.6-2.1c0.8-0.8,1.5-1.7,2.1-2.6c0.2-0.3,0.3-0.5,0.5-0.8
					c0.4-0.7,0.8-1.4,1.1-2.1l0,0L414.6,286.1z M334,198.5L334,198.5c4.4,4.5,4.4,11.8,0,16.3c-2,2-4.7,3.1-7.6,3.2
					c-3.3,0.2-6.4-1-8.7-3.3c-2-2-3.2-4.7-3.3-7.6c-0.1-0.6-0.1-1.2,0-1.8c0-0.3,0-0.6,0-0.8c0.1-0.5,0.2-1,0.4-1.5v-0.8
					c0.2-0.5,0.5-1,0.8-1.4l0.3-0.6c0.4-0.7,0.9-1.3,1.5-1.8c4.5-4.4,11.8-4.4,16.3,0L334,198.5z M329.3,173.1
					c3.2,3.3,3.2,8.5,0,11.8l-3.9,3.8c-0.4,0-0.9,0-1.3,0s-1,0-1.4,0c-0.7,0.1-1.4,0.3-2.1,0.5c-0.4,0.1-0.9,0.3-1.3,0.4
					c-0.7,0.3-1.5,0.7-2.1,1.1c-0.3,0-0.7,0.3-1,0.5c-2,1.3-3.8,3-5.1,5.1l-0.7,1.3l-1,1.8l-0.5,1.6l-0.5,1.8v1.7c0,0.4,0,0.8,0,1.2
					l-3.9,4c-3.3,3.2-8.5,3.2-11.8,0l-5.7-5.1c8.7-2.8,16.4-7.8,22.6-14.5c6.6-6.1,11.5-13.8,14.3-22.4L329.3,173.1z M328.3,148.8
					l-8.4,4.5c-1.5,0.9-3.5,0.9-5,0c-1.7-0.8-2.8-2.6-2.8-4.5l0,0c0-1.7,1-3.3,2.5-4.2c1.6-0.9,3.5-0.9,5,0L328.3,148.8z
					 M323.3,98.5l-7.7,18c-1.5-1.9-3.1-3.8-4.8-5.5c-1.7-1.7-3.6-3.3-5.5-4.8L323.3,98.5z M272.5,102.1c0.9,1.6,0.9,3.5,0,5
					c-1.5,2.4-4.7,3.2-7.1,1.7c-0.7-0.4-1.3-1-1.7-1.7c-0.5-0.8-0.7-1.7-0.7-2.6c0-0.8,0.2-1.7,0.6-2.4l4.5-8.4L272.5,102.1z"/>
			</g>
            <g>
				<path class="st0" d="M261.4,160.5c5,5,13.2,5,18.3,0c5-5,5-13.2,0-18.3c-5-5-13.2-5-18.2,0C256.6,147.3,256.6,155.4,261.4,160.5
					z M275.2,146.7c2.5,2.6,2.5,6.7,0,9.3c-2.6,2.6-6.8,2.6-9.4,0c-1.2-1.3-1.9-2.9-1.9-4.7c0-3.7,3-6.6,6.6-6.6
					C272.3,144.8,274,145.5,275.2,146.7z"/>
			</g>
            <g>
				<path class="st0" d="M267.7,152.6c0.2,0.4,0.4,0.7,0.7,1c0.6,0.6,1.4,0.9,2.2,0.9c0.4,0.1,0.8,0.1,1.2,0c0.4-0.2,0.7-0.4,1-0.7
					s0.5-0.6,0.7-1s0.3-0.8,0.3-1.2c0-0.8-0.3-1.6-0.9-2.2c-0.3-0.3-0.6-0.5-1-0.7s-0.8-0.3-1.2-0.3c-0.8,0-1.6,0.3-2.2,0.9
					C267.5,150.2,267.3,151.5,267.7,152.6z"/>
			</g>
		</g>
	</g>
        <g class="st1">
		<path class="st0" d="M135.6,101.9h25.3l6.2,106.7h-24.5l-2.6-43.6l-14.8,43.6h-24.5L85,163.3l-2.9,45.3H57.4l6.8-106.7h25.3
			l23.4,66.8L135.6,101.9z"/>
            <path class="st0" d="M410,181c-1.3,0.2-2.5,0.3-3.8,0.4c-1.3,0.1-2.6,0.2-3.9,0.3v26.9h-24.5V102.5h24.5
			c6.1,0.1,11.8,1.2,17.1,3.3c5.3,2.1,10,5,14,8.6c4,3.6,7.2,7.7,9.4,12.5c2.3,4.7,3.4,9.8,3.4,15.2c0,5.7-1.2,11-3.6,15.9
			c-2.4,4.9-5.8,9.1-10.2,12.7l23.5,38h-28.9L410,181z M402.3,157.1c2.6-0.1,5.1-0.6,7.5-1.4c2.4-0.8,4.5-1.9,6.2-3.3
			c1.8-1.4,3.2-2.9,4.2-4.7c1-1.8,1.5-3.7,1.5-5.7c0-2-0.5-3.9-1.5-5.7c-1-1.7-2.4-3.3-4.2-4.6c-1.8-1.4-3.9-2.4-6.2-3.3
			c-2.4-0.8-4.9-1.3-7.5-1.4V157.1z"/>
            <path class="st0" d="M549.1,102h24.5v106.6h-26.6l-34.8-62.1v62.1h-24.5V102.3h26.7l34.7,62V102z"/>
            <path class="st0" d="M632.6,208.6h-24.5V101.9h24.5V208.6z"/>
            <path class="st0" d="M729.4,102H754v106.6h-26.6l-34.8-62.1v62.1H668V102.3h26.7l34.7,62V102z"/>
            <path class="st0" d="M875.1,148.9v59.7h-24.7V206c-2.7,1-5.5,1.7-8.3,2.1c-2.9,0.4-5.7,0.7-8.5,0.7c-6.9,0-13.6-1.3-20.2-3.9
			c-6.6-2.6-12.5-6.5-17.7-11.8c-5.2-5.2-9.1-11.1-11.7-17.6c-2.6-6.5-3.8-13.2-3.8-20.1c0-6.9,1.3-13.6,3.8-20.2
			c2.6-6.6,6.5-12.5,11.7-17.7c5.2-5.2,11.1-9.1,17.7-11.8c6.6-2.6,13.3-3.9,20.2-3.9c6.9,0,13.6,1.3,20.2,3.9
			c6.6,2.6,12.5,6.5,17.7,11.8L854,134.9c-2.8-2.8-6-4.9-9.6-6.3c-3.6-1.4-7.2-2.1-10.9-2.1c-3.7,0-7.3,0.7-10.9,2.1
			c-3.6,1.4-6.8,3.5-9.6,6.3c-2.8,2.8-4.9,6-6.4,9.6c-1.5,3.6-2.2,7.2-2.2,10.9c0,3.7,0.7,7.3,2.2,10.9c1.5,3.6,3.6,6.8,6.4,9.6
			c2.5,2.5,5.3,4.5,8.5,5.9c3.1,1.4,6.4,2.2,9.7,2.5c3.3,0.2,6.7-0.1,9.9-0.9c3.3-0.9,6.3-2.3,9.1-4.4v-5.4H829v-24.5H875.1z"/>
            <path class="st0" d="M939.2,210.6c-3.4,0-6.8-0.5-10.1-1.4c-3.3-0.9-6.5-2.3-9.5-4.3c-5.2-3.4-9.3-7.8-12.2-13.1
			c-2.9-5.4-4.4-11.3-4.4-17.6h24.5c0,2.9,0.6,5.2,1.9,6.8c1.3,1.6,2.4,2.7,3.3,3.3c1.7,1.2,3.6,1.8,5.7,1.9c2,0.1,4-0.3,6-1.2
			c1.4-0.6,2.4-1.3,3.3-2.2c0.8-0.9,1.5-1.7,1.9-2.5c0.4-0.8,0.7-1.6,0.8-2.4c0.1-0.8,0.1-1.4,0.1-1.9c0-0.5,0-1.1-0.1-1.9
			c-0.1-0.8-0.4-1.6-0.8-2.5c-0.4-0.9-1.1-1.7-1.9-2.5c-0.8-0.8-1.9-1.6-3.3-2.3c-1.1-0.5-2.2-0.9-3.4-1.3c-1.2-0.4-2.5-0.8-3.8-1.3
			c-2.4-0.8-4.9-1.6-7.5-2.6c-2.6-1-5.2-2.3-7.8-3.9c-3.4-2.1-6.2-4.8-8.6-8s-4-6.6-5-10.3c-1-3.7-1.4-7.5-1-11.4
			c0.3-3.9,1.4-7.7,3.3-11.3c1.7-3.3,3.9-6.1,6.5-8.6c2.6-2.4,5.5-4.3,8.7-5.7c3.2-1.4,6.6-2.2,10.3-2.5c3.7-0.3,7.4,0.1,11.2,1
			c3.7,0.9,7,2.3,10,4.1c3,1.9,5.6,4.2,7.7,6.8c2.2,2.7,3.8,5.6,5,8.9c1.2,3.3,1.7,6.7,1.7,10.3h-24.4c0-2.2-0.7-3.8-2.1-4.6
			c-1.4-0.9-2.6-1.5-3.7-1.7c-0.2,0-0.7-0.1-1.4-0.2c-0.7-0.1-1.5-0.1-2.5,0c-0.9,0.1-1.9,0.5-2.8,1c-1,0.5-1.7,1.4-2.3,2.5
			c-0.8,1.5-0.9,3.2-0.4,4.9c0.5,1.7,1.5,3,2.9,4c1.4,0.8,2.9,1.5,4.5,2.1c1.6,0.6,3.4,1.2,5.2,1.8c1.6,0.5,3.3,1,5,1.6
			c1.7,0.6,3.4,1.3,5.1,2c6.3,2.9,11.3,7.2,14.9,12.8c3.6,5.6,5.4,11.9,5.4,18.7c0,6.8-1.8,13-5.4,18.6c-3.6,5.6-8.6,9.9-14.9,12.8
			c-2.5,1.2-5.1,2-7.7,2.5C944.5,210.4,941.9,210.6,939.2,210.6z"/>
            <path class="st0" d="M1067.6,101.6v24.5h-20.5v82.5h-24.5v-82.5h-20.3v-24.5H1067.6z"/>
            <path class="st0" d="M1159.9,208.6l-4.2-12.9h-33.5l-4.4,12.9h-26l36.3-106.6h23.2l34.4,106.6H1159.9z M1130.6,171.2h17.3
			l-8.4-25.8L1130.6,171.2z"/>
            <path class="st0" d="M1246.2,181c-1.3,0.2-2.5,0.3-3.8,0.4c-1.3,0.1-2.6,0.2-3.9,0.3v26.9h-24.5V102.5h24.5
			c6.1,0.1,11.8,1.2,17.1,3.3c5.3,2.1,10,5,14,8.6c4,3.6,7.2,7.7,9.4,12.5c2.3,4.7,3.4,9.8,3.4,15.2c0,5.7-1.2,11-3.6,15.9
			c-2.4,4.9-5.8,9.1-10.2,12.7l23.5,38h-28.9L1246.2,181z M1238.5,157.1c2.6-0.1,5.1-0.6,7.5-1.4c2.4-0.8,4.5-1.9,6.2-3.3
			c1.8-1.4,3.2-2.9,4.2-4.7c1-1.8,1.5-3.7,1.5-5.7c0-2-0.5-3.9-1.5-5.7c-1-1.7-2.4-3.3-4.2-4.6c-1.8-1.4-3.9-2.4-6.2-3.3
			c-2.4-0.8-4.9-1.3-7.5-1.4V157.1z"/>
	</g>
</g>
</svg>
